<svg xmlns="http://www.w3.org/2000/svg" fill="none" viewBox="0 0 132 29"><path fill="red" d="M41.22 4.528c-.482-1.78-1.908-3.183-3.723-3.665C34.215 0 21.049 0 21.049 0S7.889 0 4.6.863A5.24 5.24 0 00.877 4.528C0 7.758 0 14.5 0 14.5s0 6.742.877 9.972c.482 1.78 1.909 3.183 3.724 3.665C7.889 29 21.049 29 21.049 29s13.166 0 16.448-.863a5.24 5.24 0 003.724-3.665c.877-3.23.877-9.972.877-9.972s0-6.743-.877-9.972z"/><path fill="#fff" d="M16.843 20.715L27.78 14.5 16.843 8.285v12.43z"/><path fill="#282828" d="M65.772 23.535c.228-.593.348-1.562.348-2.9v-5.662c0-1.305-.114-2.254-.348-2.86-.228-.6-.636-.903-1.219-.903-.562 0-.957.303-1.192.903-.228.6-.348 1.555-.348 2.86v5.662c0 1.345.107 2.313.328 2.9.221.593.623.89 1.205.89.59 0 .991-.297 1.226-.89zm-4.668 2.847c-.83-.554-1.426-1.41-1.775-2.577-.348-1.167-.529-2.716-.529-4.653v-2.637c0-1.957.201-3.526.603-4.712.402-1.186 1.032-2.05 1.882-2.59.85-.54 1.969-.817 3.355-.817 1.366 0 2.458.276 3.282.83.824.554 1.426 1.417 1.808 2.59.382 1.173.57 2.742.57 4.693v2.636c0 1.938-.188 3.493-.557 4.667-.368 1.173-.97 2.036-1.808 2.576-.83.541-1.962.818-3.389.818-1.46.006-2.611-.27-3.442-.824zM125.571 11.553c-.208.257-.349.679-.422 1.259-.074.58-.107 1.47-.107 2.65v1.305h3.04V15.46c0-1.166-.04-2.05-.121-2.65-.08-.599-.227-1.027-.435-1.271-.207-.244-.535-.37-.977-.37-.442-.006-.771.126-.978.383zm-.529 7.645v.917c0 1.166.033 2.036.107 2.623.067.58.214 1.008.435 1.272s.563.402 1.025.402c.623 0 1.051-.237 1.279-.712.228-.474.355-1.265.375-2.373l3.583.205c.02.158.027.375.027.652 0 1.68-.469 2.933-1.4 3.764-.931.83-2.25 1.245-3.958 1.245-2.049 0-3.483-.633-4.306-1.898-.824-1.266-1.232-3.216-1.232-5.866v-3.17c0-2.729.428-4.713 1.279-5.971.85-1.253 2.31-1.879 4.38-1.879 1.426 0 2.518.257 3.281.771.764.514 1.299 1.312 1.614 2.4.308 1.087.469 2.59.469 4.501v3.111h-6.958v.006zM50.992 18.857l-4.728-16.8h4.125l1.654 7.612c.422 1.878.73 3.473.931 4.798h.12c.141-.949.45-2.537.932-4.772L55.74 2.05h4.125l-4.781 16.807v8.06h-4.092v-8.06zM83.713 8.754v18.158h-3.247l-.362-2.221h-.087c-.884 1.68-2.21 2.517-3.972 2.517-1.225 0-2.13-.395-2.712-1.186-.583-.791-.87-2.024-.87-3.704V8.754h4.152v13.333c0 .81.087 1.39.268 1.733.18.343.482.521.904.521.361 0 .71-.105 1.037-.323.329-.217.577-.494.737-.83V8.754h4.152zM105.024 8.754v18.158h-3.248l-.362-2.221h-.087c-.884 1.68-2.21 2.517-3.971 2.517-1.225 0-2.13-.395-2.712-1.186-.583-.791-.871-2.024-.871-3.704V8.754h4.152v13.333c0 .81.087 1.39.268 1.733.18.343.482.521.904.521.362 0 .71-.105 1.038-.323.328-.217.576-.494.737-.83V8.754h4.152z"/><path fill="#282828" d="M95.004 5.345H90.88v21.566h-4.065V5.345h-4.125V2.057h12.309v3.288h.006zM114.963 19.069c0 1.324-.054 2.36-.168 3.11-.107.752-.294 1.286-.556 1.603-.261.316-.609.474-1.051.474-.342 0-.656-.08-.951-.238a1.83 1.83 0 01-.71-.711V12.992c.14-.494.382-.896.723-1.213.342-.316.71-.474 1.112-.474.422 0 .75.164.978.488.228.322.388.876.482 1.64.087.772.134 1.866.134 3.29v2.346h.007zm3.81-7.408c-.254-1.147-.656-1.978-1.219-2.492-.562-.514-1.332-.77-2.317-.77-.763 0-1.473.21-2.136.638a4.323 4.323 0 00-1.534 1.675h-.033v-9.57h-4.005v25.776h3.429l.422-1.72h.087c.321.613.803 1.094 1.446 1.45a4.337 4.337 0 002.137.534c1.406 0 2.437-.64 3.1-1.911.663-1.272.991-3.263.991-5.972v-2.873c.007-2.03-.12-3.618-.368-4.765z"/></svg>